<svg width="54" height="50" viewBox="0 0 54 50" fill="none" xmlns="http://www.w3.org/2000/svg">
<path d="M1.00653 12.6789C0.921021 12.5382 0.896585 12.3731 0.93323 12.214C0.972929 12.055 1.07065 11.9173 1.21112 11.8317L3.51975 10.4247C3.80985 10.2473 4.18852 10.3391 4.36564 10.6297L6.26811 13.7586H7.33998L5.1474 10.1525C4.70766 9.43069 3.76405 9.20129 3.04337 9.64173L0.734739 11.0487C0.386612 11.2628 0.139256 11.5992 0.0445905 11.9969C-0.0531291 12.3945 0.0110076 12.8074 0.224769 13.1561L0.591213 13.7586H1.66308L1.00653 12.6789Z" fill="black"/>
<path d="M7.31582 4.35954C7.20894 4.46965 7.09289 4.57059 6.95853 4.65317C6.82416 4.73575 6.68064 4.79692 6.53711 4.83975L11.9575 13.7556H13.0294L7.31582 4.35954Z" fill="black"/>
<path d="M6.39944 2.85474L6.80558 3.52458C6.84223 3.45729 6.87277 3.38388 6.89109 3.30742C6.94911 3.0719 6.90941 2.82416 6.78421 2.61617C6.6132 2.33478 6.31088 2.17879 6.0055 2.17879C5.84365 2.17879 5.6818 2.22161 5.53217 2.31031C5.32451 2.43571 5.17794 2.63758 5.11992 2.87309C5.0619 3.10861 5.10159 3.35635 5.22679 3.56434C5.40086 3.85185 5.70929 4.00478 6.02077 3.99867L5.61462 3.32883L6.39944 2.85474Z" fill="black"/>
<path d="M6.80607 3.52453L6.39992 2.85469L5.61816 3.33183L6.02431 4.00167C6.18005 3.99861 6.33885 3.95885 6.48237 3.87321C6.62284 3.78451 6.72972 3.66522 6.80607 3.52453Z" fill="black"/>
<path d="M4.83886 3.80589C4.44492 3.16053 4.64953 2.31635 5.29692 1.9218C5.94126 1.52724 6.78409 1.73216 7.17802 2.38059C7.48645 2.88831 7.42232 3.51533 7.06808 3.95271L7.31545 4.36256C7.54142 4.1301 7.70632 3.84871 7.78267 3.5245C7.89871 3.05042 7.82236 2.55798 7.5689 2.14202C7.04366 1.27949 5.91988 1.00727 5.05873 1.5303C4.19757 2.05637 3.92579 3.185 4.44798 4.04446C4.79305 4.61031 5.39464 4.92228 6.01149 4.92228C6.18861 4.92228 6.36267 4.89476 6.53674 4.84276L6.28633 4.42985C5.7336 4.54301 5.14729 4.31362 4.83886 3.80589Z" fill="black"/>
<path d="M6.95808 4.65618C7.09245 4.5736 7.2085 4.47266 7.31538 4.36255L7.06801 3.9527C6.97335 4.07198 6.85731 4.17904 6.71989 4.26468C6.58247 4.35032 6.43284 4.39926 6.2832 4.42984L6.5336 4.84276C6.68019 4.79688 6.82372 4.73876 6.95808 4.65618Z" fill="black"/>
<path d="M6.4815 3.87017C6.33797 3.95887 6.17918 3.99558 6.02344 3.99864L6.28301 4.42684C6.43264 4.39626 6.57922 4.34426 6.71969 4.26167C6.85711 4.17603 6.9701 4.06898 7.06782 3.9497L6.80825 3.52148C6.72886 3.66524 6.62197 3.78453 6.4815 3.87017Z" fill="black"/>
<path d="M15.8199 11.4096C15.6428 11.119 15.7344 10.7397 16.0245 10.5623L18.3332 9.15538C18.4736 9.06974 18.6385 9.04528 18.7973 9.08198C18.9561 9.12174 19.0905 9.21962 19.176 9.36031L21.848 13.7555H22.9199L19.9578 8.88317C19.744 8.53449 19.4081 8.28674 19.0111 8.19193C18.6141 8.09405 18.2019 8.15828 17.8537 8.37238L15.5451 9.77934C14.8244 10.2198 14.5954 11.1649 15.0351 11.8867L16.1711 13.7555H17.243L15.8199 11.4096Z" fill="black"/>
<path d="M22.1323 3.09634C22.0255 3.20645 21.9064 3.30433 21.772 3.38691C21.6376 3.4695 21.4941 3.53066 21.3506 3.57349L27.5405 13.7556H28.6124L22.1323 3.09634Z" fill="black"/>
<path d="M21.2129 1.58542L21.6191 2.25525C21.7656 1.97998 21.7717 1.63436 21.5977 1.34991C21.4725 1.14192 21.2709 0.995109 21.0358 0.936996C20.9625 0.918644 20.8923 0.90947 20.819 0.90947C20.6541 0.90947 20.4922 0.955349 20.3456 1.04405C20.138 1.16945 19.9914 1.37132 19.9334 1.60683C19.8754 1.84234 19.9151 2.09009 20.0403 2.29807C20.2143 2.58558 20.5228 2.73545 20.8342 2.73239L20.4281 2.06256L21.2129 1.58542Z" fill="black"/>
<path d="M21.6196 2.25519L21.2134 1.58536L20.4316 2.0625L20.8378 2.73233C20.9935 2.72927 21.1523 2.68951 21.2959 2.60387C21.4394 2.51823 21.5463 2.39588 21.6196 2.25519Z" fill="black"/>
<path d="M19.6527 2.53965C19.2587 1.89428 19.4633 1.05011 20.1107 0.655551C20.7551 0.260991 21.5979 0.465917 21.9918 1.11434C22.3003 1.62207 22.2361 2.24908 21.8819 2.68952L22.1323 3.10243C22.6973 2.51824 22.8255 1.60372 22.3827 0.878827C22.1293 0.459799 21.7292 0.169233 21.2528 0.0530062C20.7795 -0.0632206 20.2879 0.0132435 19.8725 0.267107C19.4572 0.520971 19.1641 0.921651 19.048 1.39879C18.932 1.87593 19.0083 2.36531 19.2618 2.78434C19.6069 3.35018 20.2085 3.66215 20.8253 3.66215C21.0024 3.66215 21.1765 3.63463 21.3506 3.58263L21.1001 3.16972C20.5474 3.27677 19.9611 3.04738 19.6527 2.53965Z" fill="black"/>
<path d="M22.1319 3.09633L21.8815 2.68343C21.7868 2.80271 21.6708 2.90976 21.5334 2.9954C21.396 3.08104 21.2463 3.12998 21.0967 3.16057L21.3471 3.57347C21.4937 3.53065 21.6341 3.46948 21.7685 3.3869C21.9029 3.30432 22.025 3.20644 22.1319 3.09633Z" fill="black"/>
<path d="M21.295 2.60391C21.1515 2.69261 20.9927 2.72931 20.8369 2.73237L21.0965 3.16058C21.2461 3.12999 21.3927 3.07799 21.5332 2.99541C21.6706 2.90977 21.7836 2.80272 21.8813 2.68344L21.6217 2.25523C21.5454 2.39593 21.4385 2.51827 21.295 2.60391Z" fill="black"/>
<path d="M37.865 39.3469C37.9505 39.4876 37.9749 39.6527 37.9382 39.8118C37.9016 39.9708 37.8008 40.1054 37.6604 40.191L35.3456 41.6041C35.0555 41.7815 34.6769 41.6898 34.4997 41.3992L31.0826 35.7806H30.0107L33.718 41.8763C34.1577 42.5982 35.1013 42.8276 35.822 42.3871L38.1367 40.974C38.4849 40.7599 38.7322 40.4235 38.8299 40.0259C38.9277 39.6283 38.8635 39.2154 38.6498 38.8667L36.7717 35.7775H35.6999L37.865 39.3469Z" fill="black"/>
<path d="M31.0951 46.9046C31.202 46.7944 31.318 46.6935 31.4524 46.6109C31.5867 46.5283 31.7303 46.4672 31.8738 46.4243L25.4029 35.7835H24.3311L31.0951 46.9046Z" fill="black"/>
<path d="M32.011 48.4095L31.6048 47.7397C31.5682 47.807 31.5377 47.8804 31.5193 47.9568C31.4613 48.1923 31.501 48.4401 31.6262 48.6481C31.7514 48.856 31.953 49.0029 32.1881 49.061C32.4263 49.1191 32.6706 49.0793 32.8783 48.9539C33.0859 48.8285 33.2325 48.6267 33.2905 48.3911C33.3486 48.1556 33.3088 47.9079 33.1836 47.6999C33.0126 47.4185 32.7103 47.2625 32.4049 47.2625C32.3988 47.2625 32.3927 47.2625 32.3897 47.2625L32.7989 47.9354L32.011 48.4095Z" fill="black"/>
<path d="M31.6016 47.7397L32.0077 48.4095L32.7895 47.9324L32.3803 47.2595C32.2245 47.2625 32.0657 47.3054 31.9253 47.391C31.7878 47.4797 31.6779 47.599 31.6016 47.7397Z" fill="black"/>
<path d="M33.5719 47.4583C33.9659 48.1037 33.7613 48.9478 33.1139 49.3424C32.4695 49.737 31.6267 49.532 31.2328 48.8836C30.9243 48.3759 30.9885 47.7489 31.3427 47.3115L31.0953 46.9016C30.8724 47.1341 30.7045 47.4155 30.6281 47.7397C30.5121 48.2138 30.5884 48.7062 30.8419 49.1222C31.0953 49.5382 31.4954 49.8318 31.9718 49.948C32.1153 49.9816 32.2619 50 32.4054 50C32.7352 50 33.0619 49.9082 33.3521 49.7308C33.7674 49.477 34.0605 49.0763 34.1766 48.5992C34.2926 48.1251 34.2163 47.6326 33.9628 47.2136C33.52 46.4887 32.6527 46.1798 31.874 46.4153L32.1245 46.8282C32.6772 46.7212 33.2635 46.9506 33.5719 47.4583Z" fill="black"/>
<path d="M31.0947 46.9047L31.3421 47.3145C31.4367 47.1952 31.5528 47.0882 31.6902 47.0026C31.8276 46.9169 31.9742 46.868 32.1238 46.8374L31.8734 46.4245C31.7268 46.4673 31.5864 46.5285 31.452 46.6111C31.3176 46.6906 31.2016 46.7915 31.0947 46.9047Z" fill="black"/>
<path d="M31.9281 47.3941C32.0716 47.3084 32.2274 47.2656 32.3831 47.2625L32.1236 46.8374C31.9739 46.868 31.8273 46.92 31.6899 47.0026C31.5525 47.0882 31.4395 47.1952 31.3418 47.3145L31.6014 47.7427C31.6777 47.599 31.7876 47.4797 31.9281 47.3941Z" fill="black"/>
<path d="M45.9086 45.6354C46.0154 45.5253 46.1315 45.4243 46.2658 45.3418C46.4002 45.2592 46.5437 45.198 46.6873 45.1552L40.9859 35.7806H39.9141L45.9086 45.6354Z" fill="black"/>
<path d="M53.4601 37.6004L52.3516 35.7775H51.2797L52.6783 38.0776C52.8554 38.3681 52.7638 38.7474 52.4737 38.9248L50.159 40.3379C49.8689 40.5153 49.4902 40.4235 49.3131 40.1329L46.6685 35.7806H45.5967L48.5313 40.6101C48.9711 41.3319 49.9147 41.5613 50.6354 41.1209L52.9501 39.7078C53.6708 39.2704 53.8998 38.3223 53.4601 37.6004Z" fill="black"/>
<path d="M46.8255 47.1433L46.4193 46.4734C46.3827 46.5407 46.3521 46.6141 46.3338 46.6906C46.2758 46.9261 46.3155 47.1739 46.4407 47.3818C46.7033 47.8131 47.2652 47.9477 47.6927 47.6877C48.1202 47.4247 48.2577 46.8649 47.9981 46.4337C47.8271 46.1523 47.5248 45.9963 47.2194 45.9963C47.2133 45.9963 47.2102 45.9963 47.2041 45.9963L47.6133 46.6692L46.8255 47.1433Z" fill="black"/>
<path d="M46.415 46.4734L46.8212 47.1433L47.6029 46.6661L47.1937 45.9932C47.038 45.9963 46.8792 46.0391 46.7387 46.1247C46.6013 46.2104 46.4914 46.3327 46.415 46.4734Z" fill="black"/>
<path d="M48.3854 46.192C48.7793 46.8374 48.5747 47.6816 47.9273 48.0761C47.28 48.4707 46.4402 48.2658 46.0462 47.6173C45.7378 47.1096 45.8019 46.4826 46.1562 46.0421L45.9088 45.6323C45.6828 45.8648 45.5179 46.1461 45.4416 46.4704C45.3256 46.9444 45.4019 47.4369 45.6554 47.8559C46.0004 48.4217 46.602 48.7337 47.2189 48.7337C47.5426 48.7337 47.8693 48.6481 48.1655 48.4676C49.0267 47.9415 49.2985 46.816 48.7763 45.9534C48.3335 45.2286 47.4662 44.9196 46.6875 45.1552L46.9379 45.5681C47.4907 45.4549 48.077 45.6843 48.3854 46.192Z" fill="black"/>
<path d="M45.9092 45.6354L46.1565 46.0452C46.2512 45.926 46.3672 45.8189 46.5046 45.7333C46.6421 45.6476 46.7917 45.5987 46.9413 45.5681L46.6909 45.1552C46.5444 45.198 46.4039 45.2592 46.2695 45.3418C46.1321 45.4243 46.0161 45.5253 45.9092 45.6354Z" fill="black"/>
<path d="M46.7427 46.1247C46.8862 46.0391 47.042 45.9963 47.1977 45.9932L46.9381 45.5681C46.7885 45.5987 46.6419 45.6507 46.5015 45.7333C46.364 45.8189 46.251 45.9259 46.1533 46.0452L46.4129 46.4734C46.4923 46.3327 46.6022 46.2104 46.7427 46.1247Z" fill="black"/>
<path d="M5.64823 16.9518V32.7831H2.22804V16.9518H5.64823ZM7.1751 15.4225H5.64823H2.22804H0.701172V16.9518V32.7831V34.3124H2.22804H5.64823H7.1751V32.7831V16.9518V15.4225Z" fill="black"/>
<path d="M14.2232 16.7072C16.2417 16.7072 17.2525 17.7838 17.2525 19.937V32.7832H13.8323V19.6434C13.8323 19.5119 13.7865 19.3987 13.6979 19.3009C13.6094 19.203 13.4994 19.154 13.3681 19.154H12.0489C11.9176 19.154 11.8077 19.203 11.7191 19.3009C11.6306 19.3987 11.5848 19.5119 11.5848 19.6434V22.3105V32.7832H8.16457V22.3105V19.937V16.7072H11.1939H11.5848H14.2232V16.7072ZM14.2232 15.1779H11.5848H11.1939H8.16457H6.6377V16.7072V19.937V22.3105V32.7832V34.3125H8.16457H11.5848H13.1116H13.8323H17.2525H18.7794V32.7832V19.937C18.7794 16.9549 17.0754 15.1779 14.2232 15.1779Z" fill="black"/>
<path d="M25.6568 16.7072C27.6754 16.7072 28.6861 17.7838 28.6861 19.937V21.4296H25.437V19.5211C25.437 19.3896 25.3911 19.2764 25.3026 19.1785C25.214 19.0806 25.1041 19.0317 24.9728 19.0317H23.4337C23.3024 19.0317 23.1924 19.0806 23.1039 19.1785C23.0153 19.2764 22.9695 19.3896 22.9695 19.5211V22.3105V30.1895C22.9695 30.321 23.0153 30.4342 23.1039 30.532C23.1924 30.6299 23.3024 30.6789 23.4337 30.6789H24.9728C25.1041 30.6789 25.214 30.6299 25.3026 30.532C25.3911 30.4342 25.437 30.321 25.437 30.1895V27.7426H28.6861V29.798C28.6861 31.9512 27.6754 33.0279 25.6568 33.0279H22.5786C20.5601 33.0279 19.5493 31.9512 19.5493 29.798V22.3105V19.937V16.7072H22.5786H22.9695H25.6568ZM25.6568 15.1779H22.9695H22.5786H19.5493H18.0225V16.7072V19.937V22.3105V29.798C18.0225 32.7771 19.7264 34.5572 22.5786 34.5572H25.6568C28.509 34.5572 30.213 32.7771 30.213 29.798V27.7426V26.2133H28.6861H25.437H24.4964V22.9589H25.437H28.6861H30.213V21.4296V19.937C30.213 16.9549 28.509 15.1779 25.6568 15.1779Z" fill="black"/>
<path d="M37.0163 16.7072C39.0348 16.7072 40.0456 17.7838 40.0456 19.937V32.7832H36.6254V27.4734H34.158V32.7832H30.7378V22.3105V19.937V16.7072H33.7671H34.158H37.0163ZM34.158 24.8308H36.6254V19.5211C36.6254 19.3896 36.5796 19.2764 36.4911 19.1785C36.4025 19.0806 36.2926 19.0317 36.1613 19.0317H34.6222C34.4909 19.0317 34.3809 19.0806 34.2924 19.1785C34.2038 19.2764 34.158 19.3896 34.158 19.5211V22.3105V24.8308V24.8308ZM37.0163 15.1779H34.158H33.7671H30.7378H29.2109V16.7072V19.937V22.3105V32.7832V34.3125H30.7378H34.158H35.6849H36.6254H40.0456H41.5725V32.7832V19.937C41.5725 16.9549 39.8685 15.1779 37.0163 15.1779Z" fill="black"/>
<path d="M48.3275 16.7072C50.346 16.7072 51.3568 17.7838 51.3568 19.937V21.1115H48.1076V19.8636C48.1076 19.7321 48.0618 19.619 47.9733 19.5211C47.8847 19.4232 47.7748 19.3743 47.6434 19.3743H46.2998C46.1685 19.3743 46.0585 19.4232 45.97 19.5211C45.8814 19.619 45.8356 19.7321 45.8356 19.8636V22.6776C45.8356 22.8091 45.8814 22.9222 45.97 23.0201C46.0585 23.118 46.1685 23.1669 46.2998 23.1669H48.4985C50.517 23.2006 51.5278 24.2772 51.5278 26.3968V29.798C51.5278 31.9512 50.517 33.0279 48.4985 33.0279H45.6158C43.5972 33.0279 42.5864 31.9512 42.5864 29.798V28.1586H45.8356V29.9203C45.8356 30.0518 45.8814 30.165 45.97 30.2629C46.0585 30.3608 46.1685 30.4097 46.2998 30.4097H47.8145C47.9458 30.4097 48.0557 30.3608 48.1443 30.2629C48.2328 30.165 48.2786 30.0518 48.2786 29.9203V26.8128C48.2786 26.6813 48.2328 26.5681 48.1443 26.4702C48.0557 26.3723 47.9458 26.3234 47.8145 26.3234H45.6158C43.5972 26.3234 42.5864 25.2468 42.5864 23.0935V22.3105V19.937V16.7072H45.6158H45.7776H48.3275V16.7072ZM48.3275 15.1779H45.7776H45.6158H42.5864H41.0596V16.7072V19.937V22.3105V23.0935C41.0596 24.6075 41.4993 25.8096 42.3055 26.6293H41.0596V28.1586V29.798C41.0596 32.7771 42.7636 34.5572 45.6158 34.5572H48.4985C51.3507 34.5572 53.0547 32.7771 53.0547 29.798V26.3968C53.0547 24.7452 52.5172 23.4575 51.54 22.6408H52.8837V21.1115V19.937C52.8837 16.9549 51.1797 15.1779 48.3275 15.1779Z" fill="black"/>
</svg>
